<svg width="290" height="35" viewBox="0 0 290 34" fill="none" xmlns="http://www.w3.org/2000/svg">
<path d="M15.30 48.85Q11.55 48.85 9.13 47.88Q6.70 46.90 5.50 44.58Q4.30 42.25 4.30 38.30L4.35 13.70L10.85 13.70L10.80 38.75Q10.80 40.75 11.88 41.83Q12.95 42.90 14.95 42.90L19.20 42.90L19.20 48.85L15.30 48.85M0 26.45L0 21.35L19.20 21.35L19.20 26.45L0 26.45ZM26.35 48.50L26.35 21.35L33.30 21.35L33.30 48.50L26.35 48.50M22.55 26.55L22.55 21.35L33.30 21.35L33.30 26.55L22.55 26.55M28.90 18.10Q26.85 18.10 25.88 17.02Q24.90 15.95 24.90 14.30Q24.90 12.65 25.88 11.60Q26.85 10.55 28.90 10.55Q30.95 10.55 31.90 11.60Q32.85 12.65 32.85 14.30Q32.85 15.95 31.90 17.02Q30.95 18.10 28.90 18.10ZM41.30 48.50L41.30 12L48.25 12L48.25 33.30L47.05 33.30Q47.05 29.20 48.10 26.35Q49.15 23.50 51.23 22Q53.30 20.50 56.50 20.50L56.80 20.50Q61.45 20.50 63.85 23.70Q66.25 26.90 66.25 33L66.25 48.50L59.30 48.50L59.30 32.35Q59.30 29.75 57.83 28.25Q56.35 26.75 53.95 26.75Q51.40 26.75 49.83 28.42Q48.25 30.10 48.25 32.80L48.25 48.50L41.30 48.50ZM86.75 49.45Q83.15 49.45 80.40 48.30Q77.65 47.15 75.75 45.17Q73.85 43.20 72.88 40.70Q71.90 38.20 71.90 35.50L71.90 34.45Q71.90 31.65 72.92 29.13Q73.95 26.60 75.88 24.63Q77.80 22.65 80.55 21.52Q83.30 20.40 86.75 20.40Q90.20 20.40 92.95 21.52Q95.70 22.65 97.63 24.63Q99.55 26.60 100.55 29.13Q101.55 31.65 101.55 34.45L101.55 35.50Q101.55 38.20 100.58 40.70Q99.60 43.20 97.70 45.17Q95.80 47.15 93.05 48.30Q90.30 49.45 86.75 49.45M86.75 43.50Q89.30 43.50 91.05 42.38Q92.80 41.25 93.70 39.33Q94.60 37.40 94.60 34.95Q94.60 32.45 93.67 30.52Q92.75 28.60 90.97 27.47Q89.20 26.35 86.75 26.35Q84.30 26.35 82.53 27.47Q80.75 28.60 79.80 30.52Q78.85 32.45 78.85 34.95Q78.85 37.40 79.78 39.33Q80.70 41.25 82.45 42.38Q84.20 43.50 86.75 43.50ZM107.65 48.50L107.65 21.35L113.15 21.35L113.15 33L112.65 33Q112.65 28.90 113.70 26.13Q114.75 23.35 116.83 21.92Q118.90 20.50 122 20.50L122.30 20.50Q125.45 20.50 127.53 21.92Q129.60 23.35 130.63 26.13Q131.65 28.90 131.65 33L129.90 33Q129.90 28.90 130.97 26.13Q132.05 23.35 134.13 21.92Q136.20 20.50 139.30 20.50L139.60 20.50Q142.75 20.50 144.85 21.92Q146.95 23.35 148.03 26.13Q149.10 28.90 149.10 33L149.10 48.50L142.15 48.50L142.15 32.35Q142.15 29.80 140.85 28.27Q139.55 26.75 137.15 26.75Q134.75 26.75 133.30 28.32Q131.85 29.90 131.85 32.55L131.85 48.50L124.90 48.50L124.90 32.35Q124.90 29.80 123.60 28.27Q122.30 26.75 119.90 26.75Q117.50 26.75 116.05 28.32Q114.60 29.90 114.60 32.55L114.60 48.50L107.65 48.50ZM157.85 48.50L157.85 21.35L164.80 21.35L164.80 48.50L157.85 48.50M154.05 26.55L154.05 21.35L164.80 21.35L164.80 26.55L154.05 26.55M160.40 18.10Q158.35 18.10 157.38 17.02Q156.40 15.95 156.40 14.30Q156.40 12.65 157.38 11.60Q158.35 10.55 160.40 10.55Q162.45 10.55 163.40 11.60Q164.35 12.65 164.35 14.30Q164.35 15.95 163.40 17.02Q162.45 18.10 160.40 18.10ZM172.80 48.50L172.80 21.35L178.30 21.35L178.30 32.85L178.15 32.85Q178.15 27 180.65 24Q183.15 21 188.00 21L189.00 21L189.00 27.05L187.10 27.05Q183.60 27.05 181.68 28.92Q179.75 30.80 179.75 34.35L179.75 48.50L172.80 48.50ZM204.45 48.50L204.45 21.35L209.95 21.35L209.95 33L209.45 33Q209.45 28.85 210.55 26.07Q211.65 23.30 213.83 21.90Q216.00 20.50 219.25 20.50L219.55 20.50Q224.40 20.50 226.90 23.63Q229.40 26.75 229.40 32.95L229.40 48.50L222.45 48.50L222.45 32.35Q222.45 29.85 221.03 28.30Q219.60 26.75 217.10 26.75Q214.55 26.75 212.98 28.32Q211.40 29.90 211.40 32.55L211.40 48.50L204.45 48.50ZM238.15 48.50L238.15 21.35L245.10 21.35L245.10 48.50L238.15 48.50M234.35 26.55L234.35 21.35L245.10 21.35L245.10 26.55L234.35 26.55M240.70 18.10Q238.65 18.10 237.68 17.02Q236.70 15.95 236.70 14.30Q236.70 12.65 237.68 11.60Q238.65 10.55 240.70 10.55Q242.75 10.55 243.70 11.60Q244.65 12.65 244.65 14.30Q244.65 15.95 243.70 17.02Q242.75 18.10 240.70 18.10ZM272.10 48.50L263.00 35.80L258.95 35.80L270.50 21.35L277.75 21.35L267.10 34.70L267.25 31.20L279.95 48.50L272.10 48.50M253.10 48.50L253.10 12L260.05 12L260.05 48.50L253.10 48.50ZM296.10 49.45Q292.50 49.45 289.75 48.30Q287.00 47.15 285.10 45.17Q283.20 43.20 282.23 40.70Q281.25 38.20 281.25 35.50L281.25 34.45Q281.25 31.65 282.28 29.13Q283.30 26.60 285.23 24.63Q287.15 22.65 289.90 21.52Q292.65 20.40 296.10 20.40Q299.55 20.40 302.30 21.52Q305.05 22.65 306.98 24.63Q308.90 26.60 309.90 29.13Q310.90 31.65 310.90 34.45L310.90 35.50Q310.90 38.20 309.93 40.70Q308.95 43.20 307.05 45.17Q305.15 47.15 302.40 48.30Q299.65 49.45 296.10 49.45M296.10 43.50Q298.65 43.50 300.40 42.38Q302.15 41.25 303.05 39.33Q303.95 37.40 303.95 34.95Q303.95 32.45 303.03 30.52Q302.10 28.60 300.33 27.47Q298.55 26.35 296.10 26.35Q293.65 26.35 291.88 27.47Q290.10 28.60 289.15 30.52Q288.20 32.45 288.20 34.95Q288.20 37.40 289.13 39.33Q290.05 41.25 291.80 42.38Q293.55 43.50 296.10 43.50ZM317.35 48.50L317.35 12L324.30 12L324.30 48.50L317.35 48.50M313.95 17.20L313.95 12L324.30 12L324.30 17.20L313.95 17.20ZM345.30 49.45Q341.70 49.45 338.95 48.30Q336.20 47.15 334.30 45.17Q332.40 43.20 331.43 40.70Q330.45 38.20 330.45 35.50L330.45 34.45Q330.45 31.65 331.48 29.13Q332.50 26.60 334.43 24.63Q336.35 22.65 339.10 21.52Q341.85 20.40 345.30 20.40Q348.75 20.40 351.50 21.52Q354.25 22.65 356.18 24.63Q358.10 26.60 359.10 29.13Q360.10 31.65 360.10 34.45L360.10 35.50Q360.10 38.20 359.13 40.70Q358.15 43.20 356.25 45.17Q354.35 47.15 351.60 48.30Q348.85 49.45 345.30 49.45M345.30 43.50Q347.85 43.50 349.60 42.38Q351.35 41.25 352.25 39.33Q353.15 37.40 353.15 34.95Q353.15 32.45 352.23 30.52Q351.30 28.60 349.53 27.47Q347.75 26.35 345.30 26.35Q342.85 26.35 341.08 27.47Q339.30 28.60 338.35 30.52Q337.40 32.45 337.40 34.95Q337.40 37.40 338.33 39.33Q339.25 41.25 341.00 42.38Q342.75 43.50 345.30 43.50ZM371.05 48.50L362.55 21.35L369.70 21.35L377.85 48.50L371.05 48.50M373.10 48.50L373.10 42.80L380.45 42.80L380.45 48.50L373.10 48.50M375.85 48.50L382.85 21.35L389.55 21.35L382.20 48.50L375.85 48.50Z" fill="white" transform="scale(0.7)"/>
<path d="M280 33V28.644H284.136V33H280Z" fill="#F13024"/>
</svg>